<?xml version="1.0" standalone="no"?>
<!DOCTYPE svg PUBLIC "-//W3C//DTD SVG 20010904//EN"
 "http://www.w3.org/TR/2001/REC-SVG-20010904/DTD/svg10.dtd">
<svg version="1.0" xmlns="http://www.w3.org/2000/svg"
 width="16.000000pt" height="16.000000pt" viewBox="0 0 16.000000 16.000000"
 preserveAspectRatio="xMidYMid meet">

<g transform="translate(0.000000,16.000000) scale(0.100000,-0.100000)"
fill="#000000" stroke="none">
<path d="M4 146 c-3 -7 -4 -42 -2 -77 l3 -64 75 0 75 0 3 43 c2 25 -1 42 -7
42 -6 0 -11 -16 -11 -35 l0 -35 -60 0 -60 0 0 60 0 60 45 0 c25 0 45 5 45 10
0 16 -100 12 -106 -4z"/>
<path d="M110 105 c-23 -23 -37 -32 -44 -25 -5 5 -17 10 -25 10 -12 0 -10 -5
7 -22 l22 -23 47 48 c26 26 43 47 37 47 -5 0 -25 -16 -44 -35z"/>
</g>
</svg>
